<svg width="183" height="186" viewBox="0 0 183 186" fill="none" xmlns="http://www.w3.org/2000/svg">
<path fill-rule="evenodd" clip-rule="evenodd" d="M90.1812 160.62C52.5816 160.004 22.2766 129.393 22.1531 91.6755H0.402344V91.6755C0.402344 141.562 40.4711 182.09 90.1812 182.832V160.62Z" fill="#008000"/>
<path fill-rule="evenodd" clip-rule="evenodd" d="M160.081 94.3937C158.588 131.541 126.816 160.622 88.5449 160.307L87.7328 182.381C138.677 183.275 181.111 144.626 182.928 95.2343C182.928 95.2343 182.928 95.2342 182.928 95.2342L160.081 94.3937Z" fill="#FF8C00"/>
<path fill-rule="evenodd" clip-rule="evenodd" d="M182.47 95.8863C182.763 43.4922 142.184 0.79041 91.8342 0.509191C41.4848 0.227973 0.431227 42.4738 0.138588 94.8679L21.8893 94.9894C21.8895 94.9091 21.8898 94.8289 21.8902 94.7485C22.1123 54.9875 53.2671 22.9279 91.4765 23.1413C129.686 23.3547 160.481 55.7604 160.259 95.5214C160.258 95.6017 160.258 95.682 160.257 95.7622L182.47 95.8863Z" fill="#2BD121"/>
</svg>
