<svg width="21" height="23" viewBox="0 0 21 23" fill="none" xmlns="http://www.w3.org/2000/svg">
<path d="M21 10.3952V20.7148C20.9992 21.037 20.9135 21.353 20.7519 21.6297C20.5903 21.9065 20.3586 22.1338 20.0813 22.2879C19.8269 22.4309 19.5404 22.504 19.25 22.4998H14C13.7679 22.4998 13.5454 22.4058 13.3813 22.2384C13.2172 22.071 13.125 21.844 13.125 21.6073V16.2523C13.125 16.0155 13.0328 15.7885 12.8687 15.6212C12.7046 15.4538 12.4821 15.3597 12.25 15.3597H8.75001C8.51795 15.3597 8.29539 15.4538 8.1313 15.6212C7.9672 15.7885 7.87501 16.0155 7.87501 16.2523V21.6073C7.87501 21.844 7.78283 22.071 7.61873 22.2384C7.45464 22.4058 7.23208 22.4998 7.00001 22.4998H1.75002C1.50177 22.5008 1.25619 22.4475 1.0298 22.3436C0.803414 22.2397 0.601461 22.0875 0.437521 21.8974C0.153032 21.5545 -0.00211206 21.1194 2.17204e-05 20.6702V10.3952C9.88799e-05 10.1475 0.0507046 9.90253 0.148621 9.67589C0.246537 9.44925 0.38962 9.24588 0.568771 9.0787L9.31876 0.968001C9.64137 0.666956 10.0628 0.5 10.5 0.5C10.9373 0.5 11.3587 0.666956 11.6813 0.968001L20.4313 9.0787C20.6104 9.24588 20.7535 9.44925 20.8514 9.67589C20.9493 9.90253 20.9999 10.1475 21 10.3952Z" fill="black"/>
</svg>
