<svg width="24" height="26" viewBox="0 0 24 26" fill="none" xmlns="http://www.w3.org/2000/svg">
<path d="M2.59459 0.0270262H14.2703C14.9584 0.0270262 15.6183 0.300384 16.1049 0.786965C16.5915 1.27355 16.8649 1.93349 16.8649 2.62162V5.21622H14.2703V2.62162H2.59459V23.3784H14.2703V20.7838H16.8649V23.3784C16.8649 24.0665 16.5915 24.7265 16.1049 25.213C15.6183 25.6996 14.9584 25.973 14.2703 25.973H2.59459C1.90647 25.973 1.24652 25.6996 0.759939 25.213C0.273358 24.7265 0 24.0665 0 23.3784V2.62162C0 1.93349 0.273358 1.27355 0.759939 0.786965C1.24652 0.300384 1.90647 0.0270262 2.59459 0.0270262Z" fill="black"/>
<path d="M15.6842 17.6573L17.5134 19.4865L23.9998 13L17.5134 6.51355L15.6842 8.34274L19.0312 11.7027H6.48633V14.2973H19.0312L15.6842 17.6573Z" fill="black"/>
</svg>
