<svg width="21" height="25" viewBox="0 0 21 25" fill="none" xmlns="http://www.w3.org/2000/svg">
<path d="M13.65 7.29167H19.425L13.65 1.5625V7.29167ZM6.3 0H14.7L21 6.25V18.75C21 19.3025 20.7787 19.8324 20.3849 20.2231C19.9911 20.6138 19.457 20.8333 18.9 20.8333H6.3C5.74305 20.8333 5.2089 20.6138 4.81508 20.2231C4.42125 19.8324 4.2 19.3025 4.2 18.75V2.08333C4.2 1.5308 4.42125 1.00089 4.81508 0.610194C5.2089 0.219493 5.74305 0 6.3 0M2.1 4.16667V22.9167H18.9V25H2.1C1.54305 25 1.0089 24.7805 0.615076 24.3898C0.221249 23.9991 0 23.4692 0 22.9167V4.16667H2.1Z" fill="black"/>
</svg>
